# Blender v2.78 (sub 0) OBJ File: 'projectile.blend'
# www.blender.org
mtllib projectile.mtl
o Plane
v 0.502541 0.538899 -0.147450
v 0.497433 0.538899 -0.147450
v 0.538899 0.497059 -0.147450
v 0.538899 0.504053 -0.147450
v 0.497917 0.461101 -0.147450
v 0.502760 0.461101 -0.147450
v 0.461101 0.501824 -0.147450
v 0.461101 0.497366 -0.147450
v 0.528619 0.527872 -0.147450
v 0.471662 0.527895 -0.147450
v 0.472033 0.471229 -0.147450
v 0.527947 0.471781 -0.147450
vt 0.0001 0.4670
vt 0.1415 0.1358
vt 0.4766 0.0001
vt 0.5338 0.0001
vt 0.8697 0.1406
vt 0.9999 0.4732
vt 0.9999 0.5355
vt 0.8626 0.8592
vt 0.5378 0.9999
vt 0.4479 0.9999
vt 0.1418 0.8678
vt 0.0001 0.5327
vn 0.0000 0.0000 1.0000
usemtl Material.002
s off
f 2/1/1 10/2/1 7/3/1 8/4/1 11/5/1 5/6/1 6/7/1 12/8/1 3/9/1 4/10/1 9/11/1 1/12/1
o plasmacannon_weapon_diffuse.bmp.000_plasmacannon_weapon_diffuse.bmp.002
v 0.523383 0.500000 -0.836978
v 0.500000 0.500000 -0.887996
v 0.516535 0.516535 -0.836978
v 0.516535 0.516535 -0.836978
v 0.500000 0.500000 -0.887996
v 0.500000 0.523383 -0.836978
v 0.500000 0.523383 -0.836978
v 0.500000 0.500000 -0.887996
v 0.483465 0.516535 -0.836978
v 0.483465 0.516535 -0.836978
v 0.500000 0.500000 -0.887996
v 0.476617 0.500000 -0.836978
v 0.476617 0.500000 -0.836978
v 0.500000 0.500000 -0.887996
v 0.483465 0.483465 -0.836978
v 0.483465 0.483465 -0.836978
v 0.500000 0.500000 -0.887996
v 0.500000 0.476617 -0.836978
v 0.500000 0.476617 -0.836978
v 0.500000 0.500000 -0.887996
v 0.516535 0.483465 -0.836978
v 0.516535 0.483465 -0.836978
v 0.500000 0.500000 -0.887996
v 0.523383 0.500000 -0.836978
vt 0.0577 0.3209
vt 0.0327 0.3209
vt 0.0504 0.3032
vt 0.0504 0.3032
vt 0.0327 0.3209
vt 0.0327 0.2958
vt 0.0327 0.2958
vt 0.0327 0.3209
vt 0.0149 0.3032
vt 0.0149 0.3032
vt 0.0327 0.3209
vt 0.0076 0.3209
vt 0.0076 0.3209
vt 0.0327 0.3209
vt 0.0149 0.3386
vt 0.0149 0.3386
vt 0.0327 0.3209
vt 0.0327 0.3459
vt 0.0327 0.3459
vt 0.0327 0.3209
vt 0.0504 0.3386
vt 0.0504 0.3386
vt 0.0327 0.3209
vt 0.0577 0.3209
vn 0.8508 0.3524 -0.3899
vn 0.3524 0.8508 -0.3899
vn -0.3524 0.8508 -0.3899
vn -0.8508 0.3524 -0.3899
vn -0.8508 -0.3524 -0.3899
vn -0.3524 -0.8507 -0.3899
vn 0.3524 -0.8508 -0.3899
vn 0.8508 -0.3524 -0.3899
usemtl Material.001
s off
f 13/13/2 14/14/2 15/15/2
f 16/16/3 17/17/3 18/18/3
f 19/19/4 20/20/4 21/21/4
f 22/22/5 23/23/5 24/24/5
f 25/25/6 26/26/6 27/27/6
f 28/28/7 29/29/7 30/30/7
f 31/31/8 32/32/8 33/33/8
f 34/34/9 35/35/9 36/36/9
o plasmacannon_weapon_diffuse.bmp.001
v 0.460400 0.500000 -0.147296
v 0.476617 0.500000 -0.836978
v 0.471999 0.471998 -0.147296
v 0.476617 0.500000 -0.836978
v 0.483465 0.483465 -0.836978
v 0.471999 0.471998 -0.147296
v 0.471999 0.471998 -0.147296
v 0.483465 0.483465 -0.836978
v 0.500000 0.476617 -0.836978
v 0.471999 0.471998 -0.147296
v 0.500000 0.476617 -0.836978
v 0.500000 0.460400 -0.147296
v 0.500000 0.460400 -0.147296
v 0.500000 0.476617 -0.836978
v 0.528001 0.471998 -0.147296
v 0.500000 0.476617 -0.836978
v 0.516535 0.483465 -0.836978
v 0.528001 0.471998 -0.147296
v 0.528001 0.471998 -0.147296
v 0.516535 0.483465 -0.836978
v 0.523383 0.500000 -0.836978
v 0.528001 0.471998 -0.147296
v 0.523383 0.500000 -0.836978
v 0.539600 0.500000 -0.147296
v 0.539600 0.500000 -0.147296
v 0.523383 0.500000 -0.836978
v 0.528001 0.528002 -0.147296
v 0.523383 0.500000 -0.836978
v 0.516535 0.516535 -0.836978
v 0.528001 0.528002 -0.147296
v 0.528001 0.528002 -0.147296
v 0.516535 0.516535 -0.836978
v 0.500000 0.523383 -0.836978
v 0.528001 0.528002 -0.147296
v 0.500000 0.523383 -0.836978
v 0.500000 0.539600 -0.147296
v 0.500000 0.539600 -0.147296
v 0.500000 0.523383 -0.836978
v 0.471999 0.528002 -0.147296
v 0.500000 0.523383 -0.836978
v 0.483465 0.516535 -0.836978
v 0.483465 0.516535 -0.836978
v 0.476617 0.500000 -0.836978
v 0.471999 0.528002 -0.147296
v 0.476617 0.500000 -0.836978
v 0.460400 0.500000 -0.147296
v 0.473802 0.526198 -0.255795
v 0.473090 0.526910 -0.212939
v 0.472240 0.527760 -0.161848
v 0.472087 0.527465 -0.160511
v 0.472215 0.527785 -0.160340
v 0.477082 0.527163 -0.272498
v 0.475163 0.527480 -0.225244
v 0.472569 0.527907 -0.161340
vt 0.0132 0.0092
vt 0.0132 0.2824
vt 0.0075 0.0092
vt 0.0132 0.2824
vt 0.0075 0.2824
vt 0.0075 0.0092
vt 0.0531 0.0092
vt 0.0531 0.2824
vt 0.0474 0.2824
vt 0.0531 0.0092
vt 0.0474 0.2824
vt 0.0474 0.0092
vt 0.0474 0.0092
vt 0.0474 0.2824
vt 0.0417 0.0092
vt 0.0474 0.2824
vt 0.0417 0.2824
vt 0.0417 0.0092
vt 0.0417 0.0092
vt 0.0417 0.2824
vt 0.0360 0.2824
vt 0.0417 0.0092
vt 0.0360 0.2824
vt 0.0360 0.0092
vt 0.0360 0.0092
vt 0.0360 0.2824
vt 0.0303 0.0092
vt 0.0360 0.2824
vt 0.0303 0.2824
vt 0.0303 0.0092
vt 0.0303 0.0092
vt 0.0303 0.2824
vt 0.0246 0.2824
vt 0.0303 0.0092
vt 0.0246 0.2824
vt 0.0246 0.0092
vt 0.0246 0.0092
vt 0.0246 0.2824
vt 0.0189 0.0092
vt 0.0246 0.2824
vt 0.0189 0.2824
vt 0.0189 0.0522
vt 0.0200 0.0588
vt 0.0189 0.0092
vt 0.0132 0.2824
vt 0.0132 0.0092
vt 0.0189 0.0352
vt 0.0196 0.0401
vt 0.0189 0.0150
vt 0.0190 0.0148
vt 0.0188 0.0145
vt 0.0189 0.0144
vt 0.0189 0.2824
vt 0.0132 0.2824
vn -0.9237 -0.3826 -0.0217
vn -0.3826 -0.9237 -0.0217
vn 0.3826 -0.9237 -0.0217
vn 0.9237 -0.3826 -0.0217
vn 0.9237 0.3826 -0.0217
vn 0.3826 0.9237 -0.0217
vn -0.3826 0.9237 -0.0217
vn -0.9237 0.3826 -0.0217
usemtl Material
s off
f 37/37/10 38/38/10 39/39/10
f 40/40/10 41/41/10 42/42/10
f 43/43/11 44/44/11 45/45/11
f 46/46/11 47/47/11 48/48/11
f 49/49/12 50/50/12 51/51/12
f 52/52/12 53/53/12 54/54/12
f 55/55/13 56/56/13 57/57/13
f 58/58/13 59/59/13 60/60/13
f 61/61/14 62/62/14 63/63/14
f 64/64/14 65/65/14 66/66/14
f 67/67/15 68/68/15 69/69/15
f 70/70/15 71/71/15 72/72/15
f 73/73/16 74/74/16 75/75/16
f 76/76/16 77/77/16 83/78/16 88/79/16
f 80/80/17 81/81/17 82/82/17
f 88/79/16 83/78/16 84/83/16 89/84/16
f 89/84/16 84/83/16 85/85/16 90/86/16
f 86/87/17 87/88/17 78/89/17 79/90/17
